Format : AVI
      Format/Info : Audio Video Interleave
      Format profile : OpenDML
      File size : 2.06 GiB
      Duration : 4h 49mn
      Overall bit rate : 1 017 Kbps
      Writing application : Lavf53.24.2
   Video #0
      ID : 0
      Format : MPEG-4 Visual
      Format profile : Simple@L1
      Format settings, BVOP : No
      Format settings, QPel : No
      Format settings, GMC : No warppoints
      Format settings, Matrix : Default (H.263)
      Codec ID : DIVX
      Codec ID/Info : Project Mayo
      Codec ID/Hint : DivX 4
      Duration : 4h 49mn
      Bit rate : 963 Kbps
      Width : 1 280 pixels
      Height : 720 pixels
      Display aspect ratio : 16:9
      Frame rate : 24.000 fps
      Resolution : 24 bits
      Colorimetry : 4:2:0
      Scan type : Progressive
      Bits/(Pixel*Frame) : 0.044
      Stream size : 1.95 GiB (95%)
      Writing library : Lavc53.42.4
   Audio #1
      ID : 1
      Format : MPEG Audio
      Format version : Version 1
      Format profile : Layer 3
      Codec ID : 55
      Codec ID/Hint : MP3
      Duration : 1h 51mn
      Bit rate mode : Constant
      Bit rate : 128 Kbps
      Channel(s) : 2 channels
      Sampling rate : 44.1 KHz
      Resolution : 16 bits
      Stream size : 102 MiB (5%)
      Alignment : Aligned on interleaves
      Interleave, duration : 26 ms (0.63 video frame)
      Interleave, preload duration : 52 ms
      Writing library : LAME3.99.3